# xmcd
#
# Track frame offsets:
#	182
#	16805
#	34070
#	61407
#	87865
#	110060
#	131562
#	151025
#	170092
#	196087
#	213840
#	242565
#	257807
#	281432
#
# Disc length: 4023 seconds
#
# Revision: 0
# Processed by: cddbd v1.4PL0 Copyright (c) Steve Scherf et al.
# Submitted via: EasyCDDAExtractor 5.0.4.1
#
DISCID=b70fb50e
DTITLE=Calvin Owens and the Blues Orchestra - That's Your Boody
DYEAR=1900
DGENRE=Blues
TTITLE0=That's Your Booty
TTITLE1=Eat Where You Slep
TTITLE2=One of Those Nights
TTITLE3=Texas Red Shuffle
TTITLE4=Trumpet Blues
TTITLE5=Show Me
TTITLE6=All My Fault
TTITLE7=On My Feet Again
TTITLE8=The Blues I Have For You
TTITLE9=The Dog
TTITLE10=Vincent Van Gogh
TTITLE11=How Long
TTITLE12=Take Time to Love
TTITLE13=Mr. Head
EXTD=
EXTT0=
EXTT1=
EXTT2=
EXTT3=
EXTT4=
EXTT5=
EXTT6=
EXTT7=
EXTT8=
EXTT9=
EXTT10=
EXTT11=
EXTT12=
EXTT13=
PLAYORDER=
